<svg xmlns="http://www.w3.org/2000/svg" height="800" width="1200" viewBox="-6.43266 -2.932475 55.74972 17.59485" style="background-color: #FF4500"><path d="M39.4964 4.2561c0 .5442-.4412.9858-.9858.9858-.5442 0-.9854-.4416-.9854-.9858s.4412-.9857.9854-.9857c.5446 0 .9858.4415.9858.9857M22.618 6.2273c.6706 0 1.2406.5142 1.4521 1.2319H21.166c.2115-.7177.7815-1.2319 1.4521-1.2319zm1.8762 2.2177c.48 0 .7592-.3589.7387-.7118-.0112-.1867-.0276-.3026-.0496-.3972-.2943-1.2752-1.331-2.2173-2.5653-2.2173-1.463 0-2.6487 1.3237-2.6487 2.9566 0 1.633 1.1858 2.957 2.6487 2.957.9163 0 1.5708-.3338 2.0473-.857.2321-.2548.1892-.6552-.094-.852-.23-.16-.521-.1059-.735.0746-.2043.1724-.5945.5254-1.2183.5254-.745 0-1.3666-.635-1.509-1.4783zm-4.4634-2.7534a.554.554 0 00-.4632-.5463c-.8074-.1218-1.5617.1798-2.0008.7254V5.796c0-.3386-.2772-.5543-.5543-.5543a.5543.5543 0 00-.5544.5543v4.5368c0 .2967.2238.5571.5201.5753a.5547.5547 0 00.5886-.5536V8.0143c0-1.0357.7787-1.886 1.8476-1.7704a.4992.4992 0 00.1096-.0004.5541.5541 0 00.5068-.5519m19.0344.5974a.5543.5543 0 00-1.1086 0v4.0655a.5543.5543 0 001.1086 0zm-10.78 3.6343c-.8507 0-1.54-.8273-1.54-1.848 0-1.0206.6893-1.8479 1.54-1.8479s1.54.8273 1.54 1.848c0 1.0206-.6893 1.848-1.54 1.848zm2.5255-6.7143a.5546.5546 0 00-.5543-.5546.5546.5546 0 00-.5543.5546v2.4756c-.3756-.3752-.8546-.5662-1.417-.5662-1.4628 0-2.6486 1.324-2.6486 2.957 0 1.6329 1.1858 2.9566 2.6487 2.9566.5676 0 1.0433-.1952 1.427-.5732a.5545.5545 0 00.5442.4503.5546.5546 0 00.5543-.5547zm3.2649 6.7143c-.8507 0-1.54-.8273-1.54-1.848 0-1.0206.6893-1.8479 1.54-1.8479s1.54.8273 1.54 1.848c0 1.0206-.6893 1.848-1.54 1.848zm2.5255-6.7143a.5546.5546 0 00-.5543-.5546.5546.5546 0 00-.5543.5546v2.4756c-.3756-.3752-.8546-.5662-1.4169-.5662-1.463 0-2.6487 1.324-2.6487 2.957 0 1.6329 1.1858 2.9566 2.6487 2.9566.5676 0 1.0434-.1952 1.427-.5732a.5545.5545 0 00.5442.4503.5546.5546 0 00.5543-.5547zm5.2809 7.1455V6.2272h.4928c.2625 0 .4915-.198.5086-.4598a.4929.4929 0 00-.4919-.5256h-.5096v-.782c0-.2953-.2227-.5529-.5177-.572a.5542.5542 0 00-.591.5532v.8008h-.4593c-.2621 0-.4915.1979-.5086.46a.4928.4928 0 00.4918.5254h.4762v4.1273a.5543.5543 0 001.1086 0M8.8439 8.0257c-.5671 0-1.029-.4614-1.029-1.029 0-.5675.4619-1.0289 1.029-1.0289.5672 0 1.029.4614 1.029 1.029 0 .5675-.4618 1.0289-1.029 1.0289m.1811 1.69c-.7021.7012-2.048.7556-2.4435.7556-.396 0-1.7418-.0544-2.4431-.756a.2665.2665 0 010-.3771.267.267 0 01.3774 0c.4424.4429 1.3895.5997 2.0657.5997.6762 0 1.6232-.1568 2.067-.5997a.2665.2665 0 11.3765.3774M3.2877 6.9968c0-.5676.4617-1.029 1.0293-1.029.5671 0 1.0285.4614 1.0285 1.029 0 .5671-.4614 1.0285-1.0285 1.0285-.5676 0-1.0293-.4614-1.0293-1.0285m9.876-1.029c0-.7955-.6449-1.4405-1.4404-1.4405-.3881 0-.74.1544-.999.4042-.9848-.7108-2.3414-1.1697-3.8522-1.2224L7.528.622l2.1439.4556c.026.5453.4725.9804 1.024.9804.5684 0 1.029-.461 1.029-1.029C11.725.4606 11.2643 0 10.696 0c-.4042 0-.7503.235-.9186.5741L7.3832.0654a.2531.2531 0 00-.1934.0358.2578.2578 0 00-.1115.1622l-.7199 3.3877c-.0041.0193-.0008.0378-.0008.0568-1.538.0403-2.921.5004-3.921 1.2207a1.4341 1.4341 0 00-.996-.4013C.6448 4.5273 0 5.1723 0 5.9678c0 .5853.3494 1.0878.8511 1.3134a2.8387 2.8387 0 00-.0345.4358c0 2.216 2.5797 4.0129 5.762 4.0129 3.1823 0 5.762-1.797 5.762-4.0129 0-.1465-.0119-.291-.0337-.433.5046-.2243.8569-.7289.8569-1.3162" fill="#FFF"/></svg>